<?xml version="1.0" encoding="UTF-8" standalone="no"?>
<!-- Generator: Adobe Illustrator 26.1.0, SVG Export Plug-In . SVG Version: 6.00 Build 0)  -->

<svg
   version="1.1"
   id="Layer_1"
   x="0px"
   y="0px"
   viewBox="0 0 977.70001 387.62"
   xml:space="preserve"
   sodipodi:docname="zarr-pink-horizontal.svg"
   width="977.70001"
   height="387.62"
   inkscape:version="1.3.2 (091e20e, 2023-11-25)"
   xmlns:inkscape="http://www.inkscape.org/namespaces/inkscape"
   xmlns:sodipodi="http://sodipodi.sourceforge.net/DTD/sodipodi-0.dtd"
   xmlns="http://www.w3.org/2000/svg"
   xmlns:svg="http://www.w3.org/2000/svg"><defs
   id="defs13" /><sodipodi:namedview
   id="namedview13"
   pagecolor="#ffffff"
   bordercolor="#999999"
   borderopacity="1"
   inkscape:showpageshadow="2"
   inkscape:pageopacity="0"
   inkscape:pagecheckerboard="0"
   inkscape:deskcolor="#d1d1d1"
   inkscape:zoom="0.19666667"
   inkscape:cx="485.59322"
   inkscape:cy="193.22034"
   inkscape:window-width="1312"
   inkscape:window-height="449"
   inkscape:window-x="0"
   inkscape:window-y="37"
   inkscape:window-maximized="0"
   inkscape:current-layer="Layer_1" />
<style
   type="text/css"
   id="style1">
	.st0{fill:url(#SVGID_1_);}
	.st1{fill:url(#SVGID_00000049916979490129985880000006134185012107569597_);}
	.st2{fill:url(#SVGID_00000080914569712496215710000005892002110122160282_);}
	.st3{fill:#262262;}
	.st4{fill:#EF7943;}
	.st5{fill:#FFFFFF;}
	.st6{fill:#5B6670;}
	.st7{fill:#323B68;}
	.st8{fill:#21B0B7;}
	.st9{fill:#114999;}
	.st10{fill:#06262D;}
	.st11{fill:url(#SVGID_00000023995174482401590100000014180229098725433524_);}
	.st12{fill:#3D4543;}
	.st13{fill:url(#SVGID_00000068637756729661439010000013771980727991085727_);}
	.st14{fill:#E01073;}
	.st15{fill:url(#SVGID_00000113312867394074002770000006285773742854329484_);}
	.st16{fill:url(#SVGID_00000026857625296769212540000015742443253915618464_);}
	.st17{fill:url(#SVGID_00000147191186001929186330000013043410487213114786_);}
</style>
<g
   id="g13"
   transform="translate(-109.8,-406.19)">
	<linearGradient
   id="SVGID_1_"
   gradientUnits="userSpaceOnUse"
   x1="303.03149"
   y1="406.18561"
   x2="303.03149"
   y2="793.81427">
		<stop
   offset="0"
   style="stop-color:#E58077"
   id="stop1" />
		<stop
   offset="0.0872"
   style="stop-color:#E57A77"
   id="stop2" />
		<stop
   offset="0.2073"
   style="stop-color:#E46876"
   id="stop3" />
		<stop
   offset="0.3465"
   style="stop-color:#E34B75"
   id="stop4" />
		<stop
   offset="0.499"
   style="stop-color:#E12374"
   id="stop5" />
		<stop
   offset="0.5612"
   style="stop-color:#E01073"
   id="stop6" />
		<stop
   offset="1"
   style="stop-color:#BB1085"
   id="stop7" />
	</linearGradient>
	<path
   class="st0"
   d="m 424.3,588.94 -21.94,-11.19 v 22.45 l 21.94,11.19 z m -1.41,20.16 -19.13,-9.75 v -19.3 l 19.13,9.75 z M 251.8,475.06 230.33,486 v -21.92 l 21.47,-10.95 z m 0,25.06 -21.47,10.95 V 489.15 L 251.8,478.2 Z m 0,25.06 -21.47,10.95 v -21.92 l 21.47,-10.95 z m 24.28,12.68 -21.47,10.95 v -21.92 l 21.47,-10.95 z m -24.28,12.38 -21.47,10.95 v -21.92 l 21.47,-10.95 z m 0,-100.25 -21.47,10.95 v -18.9 l 21.47,-10.82 z m -24.28,12.38 -21.47,10.95 v -19.04 l 21.47,-10.82 z m 0,50.13 -21.47,10.95 v -21.92 l 21.47,-10.95 z m 0,25.06 -21.47,10.95 v -21.92 l 21.47,-10.95 z m 0,25.06 -21.47,10.95 v -21.92 l 21.47,-10.95 z m 48.56,-49.82 -21.47,10.95 v -21.92 l 21.47,-10.95 z m -48.56,-25.37 -21.47,10.95 v -21.92 l 21.47,-10.95 z m 24.28,136.5 -21.47,10.7 V 614.45 L 251.8,603.5 Z m 48.93,-173.82 -21.84,11.13 v -21.92 l 21.84,-11.13 z m -170.34,86.83 -20.59,10.5 v -21.92 l 20.59,-10.5 z m 196.78,-47.63 -22.31,-11.37 v 22.45 l 22.31,11.37 z m -1.4,20.15 -19.5,-9.94 v -19.29 l 19.5,9.94 z m -25.04,-84.41 -21.84,11.13 v -18.61 l 21.84,-11 z m 26.44,39.19 -22.31,-11.37 v 22.45 l 22.31,11.37 z m -1.4,20.16 -19.5,-9.94 v -19.3 l 19.5,9.94 z m -98.25,103.28 -21.47,10.95 v -21.92 l 21.47,-10.95 z m -97.13,-25.67 -20.59,10.5 v -21.92 l 20.59,-10.5 z m 145.69,-74.27 -21.47,10.95 v -21.92 l 21.47,-10.95 z m 51.09,-48.56 -22.31,-11.37 v 22.45 l 22.31,11.37 z m -1.4,20.16 -19.5,-9.94 v -19.3 l 19.5,9.94 z m -49.69,3.34 -21.47,10.95 V 451.7 l 21.47,-10.95 z m 24.65,12.5 -21.84,11.13 v -21.92 l 21.84,-11.13 z m 0,50.12 -21.84,11.13 v -21.92 l 21.84,-11.13 z m 0,-25.06 -21.84,11.13 v -21.92 l 21.84,-11.13 z m -24.65,-62.62 -21.47,10.95 v -18.76 l 21.47,-10.82 z m -97.12,222.6 -21.47,10.7 v -19.33 l 21.47,-10.95 z m 0,-22.72 -21.47,10.95 v -21.92 l 21.47,-10.95 z m 0,-75.19 -21.47,10.95 v -21.92 l 21.47,-10.95 z m -24.28,-37.74 -21.47,10.95 V 513.6 l 21.47,-10.95 z m 24.28,62.81 -21.47,10.95 V 576.4 l 21.47,-10.95 z m 0,25.06 -21.47,10.95 v -21.92 l 21.47,-10.95 z M 154.68,499.51 133.21,510.46 V 491 l 21.47,-10.82 z m 0,150.37 -21.47,10.95 V 638.9 l 21.47,-10.95 z m 0,22.43 -21.47,10.7 v -19.05 l 21.47,-10.95 z m 0,-122.68 -21.47,10.95 v -21.92 l 21.47,-10.95 z m 0,75.18 -21.47,10.95 v -21.92 l 21.47,-10.95 z m 0,-25.06 -21.48,10.95 v -21.92 l 21.47,-10.95 v 21.92 z m 0,-25.06 -21.47,10.95 v -21.92 l 21.47,-10.95 z m 48.56,25.37 -21.47,10.95 v -21.92 l 21.47,-10.95 z m 0,-75.19 -21.47,10.95 V 513.9 l 21.47,-10.95 z m 0,-25.06 -21.47,10.95 v -21.92 l 21.47,-10.95 z m 0,50.13 -21.47,10.95 v -21.92 l 21.47,-10.95 z m -24.28,-12.69 -21.47,10.95 v -21.92 l 21.47,-10.95 z m 24.28,-62.5 -21.47,10.95 v -19.18 l 21.47,-10.82 z m 0,100.25 -21.47,10.95 v -21.92 l 21.47,-10.95 z m 24.28,61.03 -21.47,10.7 v -19.89 l 21.47,-10.95 z m -48.56,-123.84 -21.47,10.95 v -21.92 l 21.47,-10.95 z m 0,-25.06 -21.47,10.95 v -19.32 l 21.47,-10.82 z m 24.28,137.99 -21.47,10.95 v -21.92 l 21.47,-10.95 z m 0,23 -21.47,10.7 v -19.61 l 21.47,-10.95 z m 24.28,-35.38 -21.47,10.95 v -21.92 l 21.47,-10.95 z M 424.3,563.88 402.36,552.69 v 22.45 l 21.94,11.19 z m -1.41,20.15 -19.13,-9.75 v -19.29 l 19.13,9.75 z m 25.69,-32.83 -21.94,-11.19 v 22.45 l 21.94,11.19 z m -1.4,20.15 -19.13,-9.75 v -19.3 l 19.13,9.75 z m 1.4,-45.22 -21.94,-11.19 v 22.45 l 21.94,11.18 z m -1.4,20.16 -19.13,-9.75 v -19.3 l 19.13,9.75 z m 1.4,29.97 -21.94,-11.19 v 22.45 l 21.94,11.18 z m -1.4,20.15 -19.13,-9.75 v -19.29 l 19.13,9.75 z m 28.02,65.99 21.06,10.73 V 650.68 L 475.2,639.95 Z m 1.41,-20.16 18.25,9.3 v 19.29 l -18.25,-9.3 z M 448.58,501.07 426.64,489.88 v 22.45 l 21.94,11.18 z m -1.4,20.16 -19.13,-9.75 v -19.29 l 19.13,9.75 z m 28.02,116.11 21.06,10.73 V 625.62 L 475.2,614.89 Z m 1.41,-20.16 18.25,9.3 v 19.3 l -18.25,-9.3 z M 424.3,466.37 402.36,455.31 v 19.58 l 21.94,11.19 z m -1.41,17.42 -19.13,-9.75 V 457.6 l 19.13,9.64 z m 25.69,167.65 -21.94,-11.18 v 20.11 l 21.94,10.93 z m -1.4,17.59 -19.13,-9.53 v -16.94 l 19.13,9.75 z m -171.1,-77.9 v 20.71 l -21.47,10.7 v -20.46 z m 172.5,10.19 -21.94,-11.19 v 22.45 l 21.94,11.18 z m -1.4,20.15 -19.13,-9.75 v -19.3 l 19.13,9.75 z m 1.4,-142.86 -21.94,-11.06 v 19.72 l 21.94,11.19 z m -1.4,17.55 -19.13,-9.75 v -16.58 l 19.13,9.64 z m 28.02,188.39 21.06,10.49 V 675.75 L 475.2,665.02 Z m 1.41,-17.25 18.25,9.3 v 16.17 l -18.25,-9.09 z M 375.97,629.62 h -0.01 l -0.22,-0.1 V 614.31 L 353.8,603.13 v 17.89 l -2.34,1.17 v -20.25 l -9.27,-4.73 1.33,-1.94 7.94,4.05 v -15.63 l 2.34,-3.41 v 20.24 l 21.94,11.19 v -22.45 l -20.82,-10.61 1.33,-1.94 19.49,9.94 V 564.2 l -8.09,-4.12 1.33,-1.94 6.76,3.45 v -13.31 l 1.25,-1.82 0.1,-33.06 -23.02,-11.32 -2.6,1.33 v -1.71 l -21.94,-11.19 v 22.45 l 1.6,0.82 -3.94,2.01 v -1.4 L 304.86,503 v 22.45 l 1.66,0.85 -5.79,2.95 v -0.8 l -21.84,11.13 v 0.8 l -2.81,1.43 V 541 l -21.47,10.95 v 0.8 l -2.81,1.43 v -0.8 l -21.47,10.95 v 21.92 l 9.74,-4.96 v 3.14 l -9.74,4.96 v 21.92 l 21.47,-10.95 v -7.99 l 2.81,1.39 v 5.17 l 5.14,-2.62 1.65,0.82 43.82,-21.38 0.34,0.17 -4.83,6.98 v -4.34 l -21.84,11.13 v 20.74 l 4.21,-2.09 -4.59,6.63 -167.3,83.14 194.05,95.7 190.17,-95.08 -119.48,-59.8 z m -20.77,-49.27 19.13,9.75 v 19.29 l -19.13,-9.75 z m 0,25.07 19.13,9.75 v 13.72 l -19.13,-8.56 z m -0.01,19.06 15.43,6.9 -78.8,39.29 15.06,-21.96 z m -9.79,0.73 v 0 z m -0.56,0.28 -33.56,16.79 17.43,-25.42 -0.22,0.45 z m 2.12,-1.06 -17.45,-8.74 1.89,-2.76 19.31,9.62 z m 3.09,-21.64 v 17.86 l -17.84,-8.89 9.18,-13.39 z m 0,-5.77 -5.74,-2.92 5.74,-8.37 z m 24.28,-31.97 v 19.3 l -17.29,-8.81 9.8,-14.3 z m 0,-5.77 -4.56,-2.32 4.56,-6.64 z m -43.42,-47.2 v -19.29 l 19.13,9.75 v 1.56 l -17.39,8.86 z m -24.64,12.5 v -19.29 l 19.5,9.94 v 1.26 l -17.7,9.02 z m -46.75,67.33 -15.85,-8.16 0.06,-20.43 15.85,8.11 z m -13.49,-31.66 108.04,-53.96 16.81,8.26 -109.15,53.73 z m 17.31,31.73 0.06,-20.3 109.87,-54.08 v 27.68 l -92.81,135.25 92.7,-46.18 v 22.42 l -110.19,54.26 v -29.1 L 355.75,546.9 Z m 49.55,-19.96 31.6,-15.42 -84.7,123.83 -17.95,-5.89 z m -53.77,139.16 -18.46,-7.86 0.07,-25.17 17.94,5.89 z m 116.99,-52.24 0.28,-0.14 0.05,-17.5 114.73,57.43 -185.92,92.95 -189.75,-93.58 161.69,-80.35 -39.51,57.02 -0.09,0.13 -0.25,30.58 23.77,10.12 z m 72.47,-32.56 -21.94,-11.19 v 22.45 l 21.94,11.19 z m -1.4,20.16 -19.13,-9.75 v -19.3 l 19.13,9.75 z m 25.68,-108.03 -21.94,-11.19 v 22.45 l 21.94,11.19 z m -1.4,20.16 -19.13,-9.75 v -19.3 l 19.13,9.75 z m 3.74,53.6 21.06,10.73 V 600.55 L 475.2,589.82 Z m 1.41,-20.15 18.25,9.3 v 19.29 l -18.25,-9.3 z m -1.41,-29.97 21.06,10.73 V 550.43 L 475.2,539.7 Z m 1.41,-20.15 18.25,9.3 v 19.3 l -18.25,-9.3 z m -1.41,-4.91 21.06,10.73 V 525.37 L 475.2,514.64 Z m 1.41,-20.16 18.25,9.3 v 19.29 l -18.25,-9.3 z m -3.75,-26.09 -21.94,-11.06 v 19.86 l 21.94,11.19 z m -1.4,17.7 -19.13,-9.75 v -16.72 l 19.13,9.64 z m 1.4,4.91 -21.94,-11.19 v 22.45 l 21.94,11.19 z m -1.4,20.15 -19.13,-9.75 v -19.29 l 19.13,9.75 z m 1.4,29.97 -21.94,-11.19 v 22.45 l 21.94,11.19 z m -1.4,20.16 -19.13,-9.75 v -19.29 l 19.13,9.75 z m 1.4,80.09 -21.94,-11.19 v 19.82 l 21.94,10.93 z m -1.4,17.3 -19.13,-9.53 v -16.66 l 19.13,9.75 z m 1.4,-42.36 -21.94,-11.19 v 22.45 l 21.94,11.19 z m -1.4,20.15 -19.13,-9.75 v -19.29 l 19.13,9.75 z m 3.74,-71.7 21.06,10.73 V 575.5 L 475.2,564.77 Z m 1.41,-20.15 18.25,9.3 v 19.29 l -18.25,-9.3 z m -3.75,46.64 -21.94,-11.19 v 22.45 l 21.94,11.19 z m -1.4,20.15 -19.13,-9.75 v -19.3 l 19.13,9.75 z m 1.4,-45.21 -21.94,-11.19 v 22.45 l 21.94,11.19 z m -1.4,20.15 -19.13,-9.75 v -19.29 l 19.13,9.75 z M 400.02,551.5 378.08,540.31 v 22.45 l 21.94,11.19 z m -1.41,20.16 -19.13,-9.75 v -19.3 l 19.13,9.75 z m -47.16,-142 -21.94,-11.06 v 19.15 l 21.94,11.19 z m -1.4,16.99 -19.13,-9.75 v -16.01 l 19.13,9.64 z m 49.97,154.98 -21.94,-11.19 v 22.45 l 21.94,11.19 z m -1.41,20.15 -19.13,-9.75 v -19.29 l 19.13,9.75 z M 375.73,463.94 353.79,452.76 v 22.45 l 21.94,11.19 z m -1.4,20.15 -19.13,-9.75 v -19.29 l 19.13,9.75 z m 1.4,4.91 -21.94,-11.18 v 22.45 l 21.94,11.19 z m -1.4,20.16 -19.13,-9.75 v -19.3 l 19.13,9.75 z M 424.3,488.69 402.36,477.5 v 22.45 l 21.94,11.19 z m -1.41,20.16 -19.13,-9.75 v -19.3 l 19.13,9.75 z M 400.02,626.69 378.08,615.5 v 20.67 l 21.94,10.93 z m -1.41,18.15 -19.13,-9.53 V 617.8 l 19.13,9.75 z M 130.39,684.41 109.8,694.67 V 675.9 l 20.59,-10.5 z m 0,-72.28 -20.59,10.5 v -21.92 l 20.59,-10.5 z m 0,50.12 -20.59,10.5 v -21.92 l 20.59,-10.5 z M 351.45,476.62 329.51,465.43 v 22.45 l 21.94,11.19 z m -1.4,20.16 -19.13,-9.75 v -19.3 l 19.13,9.75 z m -22.88,-79.35 -22.31,-11.24 v 19.01 l 22.31,11.37 z m -1.4,16.85 -19.5,-9.94 v -15.87 l 19.5,9.83 z m -195.38,202.91 -20.59,10.5 v -21.92 l 20.59,-10.5 z M 351.45,451.56 329.51,440.37 v 22.45 l 21.94,11.19 z m -1.4,20.16 -19.13,-9.75 v -19.3 l 19.13,9.75 z m 25.68,-29.82 -21.94,-11.06 v 19.3 l 21.94,11.19 z m -1.4,17.13 -19.13,-9.75 v -16.16 l 19.13,9.64 z m -243.94,52.85 -20.59,10.5 v -19.6 L 130.39,492.4 Z M 424.3,639.07 402.36,627.88 v 20.39 l 21.94,10.93 z m -1.41,17.86 -19.13,-9.53 v -17.23 l 19.13,9.75 z M 475.2,492.02 v 20 l 21.06,10.73 v -20.13 z m 19.66,28.45 -18.25,-9.3 V 494.3 l 18.25,9.2 z M 424.3,614 402.36,602.81 v 22.45 l 21.94,11.19 z m -1.41,20.16 -19.13,-9.75 v -19.29 l 19.13,9.75 z m 1.41,-95.34 -21.94,-11.19 v 22.45 l 21.94,11.19 z m -1.41,20.15 -19.13,-9.75 v -19.29 l 19.13,9.75 z m 1.41,-45.21 -21.94,-11.19 v 22.45 l 21.94,11.19 z m -1.41,20.15 -19.13,-9.75 v -19.3 l 19.13,9.75 z m -22.87,-79.78 -21.94,-11.06 v 19.44 l 21.94,11.19 z m -1.41,17.28 -19.13,-9.75 v -16.3 l 19.13,9.64 z m -268.22,115.66 -20.59,10.5 v -21.92 l 20.59,-10.5 z m 269.63,-60.63 -21.94,-11.19 v 22.45 l 21.94,11.19 z m -1.41,20.15 -19.13,-9.75 v -19.29 l 19.13,9.75 z m 1.41,-45.21 -21.94,-11.19 v 22.45 l 21.94,11.18 z m -1.41,20.15 -19.13,-9.75 v -19.3 l 19.13,9.75 z m 1.41,55.03 -21.94,-11.19 v 22.45 l 21.94,11.19 z m -1.41,20.16 -19.13,-9.75 v -19.3 l 19.13,9.75 z m 1.41,-120.4 -21.94,-11.19 v 22.45 l 21.94,11.19 z m -1.41,20.15 -19.13,-9.75 v -19.3 l 19.13,9.75 z"
   id="path7"
   style="fill:url(#SVGID_1_)" />
	<g
   id="g12">
		<g
   id="g8">
			<path
   class="st14"
   d="m 711.28,701.77 h -161 V 662.96 L 651.43,535.01 h -98.54 v -40.44 h 158.12 v 37.03 l -0.49,0.62 -102.01,129.25 h 102.77 z m -156.45,-4.55 h 151.9 V 666.03 H 599.11 L 706.45,530.02 V 499.13 H 557.44 v 31.33 h 103.39 l -106,134.09 z"
   id="path8" />
		</g>
		<g
   id="g9">
			<path
   class="st14"
   d="m 790.85,607.38 c 7.41,-0.93 12.71,-2.1 15.9,-3.49 5.72,-2.42 8.59,-6.19 8.59,-11.32 0,-6.24 -2.2,-10.55 -6.59,-12.92 -4.39,-2.38 -10.83,-3.56 -19.33,-3.56 -9.53,0 -16.29,2.33 -20.25,6.99 -2.83,3.45 -4.72,8.1 -5.66,13.97 h -38.42 c 0.84,-13.32 4.58,-24.26 11.22,-32.83 10.57,-13.41 28.72,-20.12 54.44,-20.12 16.74,0 31.61,3.31 44.62,9.92 13,6.61 19.5,19.09 19.5,37.44 v 69.85 c 0,4.84 0.09,10.71 0.28,17.6 0.28,5.22 1.07,8.76 2.38,10.62 1.3,1.86 3.26,3.4 5.87,4.61 V 700 h -43.31 c -1.21,-3.07 -2.05,-5.96 -2.52,-8.66 -0.47,-2.7 -0.84,-5.77 -1.12,-9.22 -5.53,5.96 -11.9,11.04 -19.11,15.23 -8.62,4.94 -18.36,7.4 -29.23,7.4 -13.87,0 -25.32,-3.94 -34.36,-11.8 -9.04,-7.87 -13.56,-19.02 -13.56,-33.46 0,-18.72 7.27,-32.27 21.81,-40.65 7.98,-4.56 19.71,-7.82 35.19,-9.78 z m 24.35,18.58 c -2.55,1.58 -5.12,2.86 -7.72,3.84 -2.6,0.98 -6.16,1.89 -10.69,2.72 l -9.06,1.68 c -8.5,1.49 -14.6,3.31 -18.3,5.45 -6.27,3.63 -9.41,9.27 -9.41,16.9 0,6.8 1.91,11.71 5.75,14.74 3.83,3.03 8.49,4.54 13.97,4.54 8.7,0 16.71,-2.51 24.04,-7.54 7.33,-5.03 11.14,-14.2 11.42,-27.52 z"
   id="path9" />
		</g>
		<g
   id="g10">
			<path
   class="st14"
   d="m 974.25,544.16 c 0.51,0.05 1.65,0.12 3.42,0.21 v 40.79 c -2.52,-0.28 -4.75,-0.47 -6.71,-0.56 -1.96,-0.09 -3.54,-0.14 -4.75,-0.14 -16.02,0 -26.78,5.22 -32.27,15.65 -3.07,5.87 -4.61,14.9 -4.61,27.1 V 700 H 889.24 V 547.73 h 38 v 26.54 c 6.15,-10.15 11.5,-17.09 16.07,-20.82 7.45,-6.24 17.14,-9.36 29.06,-9.36 0.74,0 1.37,0.03 1.88,0.07 z"
   id="path10" />
		</g>
		<g
   id="g11">
			<path
   class="st14"
   d="m 1084.08,544.16 c 0.51,0.05 1.65,0.12 3.42,0.21 v 40.79 c -2.52,-0.28 -4.75,-0.47 -6.71,-0.56 -1.96,-0.09 -3.54,-0.14 -4.75,-0.14 -16.02,0 -26.78,5.22 -32.27,15.65 -3.07,5.87 -4.61,14.9 -4.61,27.1 V 700 H 999.07 V 547.73 h 38 v 26.54 c 6.15,-10.15 11.5,-17.09 16.07,-20.82 7.45,-6.24 17.14,-9.36 29.06,-9.36 0.74,0 1.36,0.03 1.88,0.07 z"
   id="path11" />
		</g>
	</g>
</g>
</svg>
