<?xml version="1.0" encoding="utf-8"?>
<!-- Generator: Adobe Illustrator 26.1.0, SVG Export Plug-In . SVG Version: 6.00 Build 0)  -->
<svg version="1.1" id="Layer_1" xmlns="http://www.w3.org/2000/svg" xmlns:xlink="http://www.w3.org/1999/xlink" x="0px" y="0px"
	 viewBox="0 0 1200 1200" style="enable-background:new 0 0 1200 1200;" xml:space="preserve">
<style type="text/css">
	.st0{fill:url(#SVGID_1_);}
	.st1{fill:url(#SVGID_00000049916979490129985880000006134185012107569597_);}
	.st2{fill:url(#SVGID_00000080914569712496215710000005892002110122160282_);}
	.st3{fill:#262262;}
	.st4{fill:#EF7943;}
	.st5{fill:#FFFFFF;}
	.st6{fill:#5B6670;}
	.st7{fill:#323B68;}
	.st8{fill:#21B0B7;}
	.st9{fill:#114999;}
	.st10{fill:#06262D;}
	.st11{fill:url(#SVGID_00000023995174482401590100000014180229098725433524_);}
	.st12{fill:#3D4543;}
	.st13{fill:url(#SVGID_00000068637756729661439010000013771980727991085727_);}
	.st14{fill:#E01073;}
	.st15{fill:url(#SVGID_00000113312867394074002770000006285773742854329484_);}
	.st16{fill:url(#SVGID_00000026857625296769212540000015742443253915618464_);}
	.st17{fill:url(#SVGID_00000147191186001929186330000013043410487213114786_);}
</style>
<g>
	<linearGradient id="SVGID_1_" gradientUnits="userSpaceOnUse" x1="303.0315" y1="406.1856" x2="303.0315" y2="793.8143">
		<stop  offset="0" style="stop-color:#E58077"/>
		<stop  offset="0.0872" style="stop-color:#E57A77"/>
		<stop  offset="0.2073" style="stop-color:#E46876"/>
		<stop  offset="0.3465" style="stop-color:#E34B75"/>
		<stop  offset="0.499" style="stop-color:#E12374"/>
		<stop  offset="0.5612" style="stop-color:#E01073"/>
		<stop  offset="1" style="stop-color:#BB1085"/>
	</linearGradient>
	<path class="st0" d="M424.3,588.94l-21.94-11.19v22.45l21.94,11.19V588.94z M422.89,609.1l-19.13-9.75v-19.3l19.13,9.75V609.1z
		 M251.8,475.06L230.33,486v-21.92l21.47-10.95V475.06z M251.8,500.12l-21.47,10.95v-21.92l21.47-10.95V500.12z M251.8,525.18
		l-21.47,10.95v-21.92l21.47-10.95V525.18z M276.08,537.86l-21.47,10.95v-21.92l21.47-10.95V537.86z M251.8,550.24l-21.47,10.95
		v-21.92l21.47-10.95V550.24z M251.8,449.99l-21.47,10.95v-18.9l21.47-10.82V449.99z M227.52,462.37l-21.47,10.95v-19.04
		l21.47-10.82V462.37z M227.52,512.5l-21.47,10.95v-21.92l21.47-10.95V512.5z M227.52,537.56l-21.47,10.95v-21.92l21.47-10.95
		V537.56z M227.52,562.62l-21.47,10.95v-21.92l21.47-10.95V562.62z M276.08,512.8l-21.47,10.95v-21.92l21.47-10.95V512.8z
		 M227.52,487.43l-21.47,10.95v-21.92l21.47-10.95V487.43z M251.8,623.93l-21.47,10.7v-20.18l21.47-10.95V623.93z M300.73,450.11
		l-21.84,11.13v-21.92l21.84-11.13V450.11z M130.39,536.94l-20.59,10.5v-21.92l20.59-10.5V536.94z M327.17,489.31l-22.31-11.37
		v22.45l22.31,11.37V489.31z M325.77,509.46l-19.5-9.94v-19.29l19.5,9.94V509.46z M300.73,425.05l-21.84,11.13v-18.61l21.84-11
		V425.05z M327.17,464.24l-22.31-11.37v22.45l22.31,11.37V464.24z M325.77,484.4l-19.5-9.94v-19.3l19.5,9.94V484.4z M227.52,587.68
		l-21.47,10.95v-21.92l21.47-10.95V587.68z M130.39,562.01l-20.59,10.5v-21.92l20.59-10.5V562.01z M276.08,487.74l-21.47,10.95
		v-21.92l21.47-10.95V487.74z M327.17,439.18l-22.31-11.37v22.45l22.31,11.37V439.18z M325.77,459.34l-19.5-9.94V430.1l19.5,9.94
		V459.34z M276.08,462.68l-21.47,10.95V451.7l21.47-10.95V462.68z M300.73,475.18l-21.84,11.13v-21.92l21.84-11.13V475.18z
		 M300.73,525.3l-21.84,11.13v-21.92l21.84-11.13V525.3z M300.73,500.24l-21.84,11.13v-21.92l21.84-11.13V500.24z M276.08,437.62
		l-21.47,10.95v-18.76l21.47-10.82V437.62z M178.96,660.22l-21.47,10.7v-19.33l21.47-10.95V660.22z M178.96,637.5l-21.47,10.95
		v-21.92l21.47-10.95V637.5z M178.96,562.31l-21.47,10.95v-21.92l21.47-10.95V562.31z M154.68,524.57l-21.47,10.95v-21.92
		l21.47-10.95V524.57z M178.96,587.38l-21.47,10.95V576.4l21.47-10.95V587.38z M178.96,612.44l-21.47,10.95v-21.92l21.47-10.95
		V612.44z M154.68,499.51l-21.47,10.95v-19.46l21.47-10.82V499.51z M154.68,649.88l-21.47,10.95V638.9l21.47-10.95V649.88z
		 M154.68,672.31l-21.47,10.7v-19.05l21.47-10.95V672.31z M154.68,549.63l-21.47,10.95v-21.92l21.47-10.95V549.63z M154.68,624.81
		l-21.47,10.95v-21.92l21.47-10.95V624.81z M154.68,599.75L133.2,610.7v-21.92l21.47-10.95V599.75z M154.68,574.69l-21.47,10.95
		v-21.92l21.47-10.95V574.69z M203.24,600.06l-21.47,10.95v-21.92l21.47-10.95V600.06z M203.24,524.87l-21.47,10.95V513.9
		l21.47-10.95V524.87z M203.24,499.81l-21.47,10.95v-21.92l21.47-10.95V499.81z M203.24,549.94l-21.47,10.95v-21.92l21.47-10.95
		V549.94z M178.96,537.25l-21.47,10.95v-21.92l21.47-10.95V537.25z M203.24,474.75l-21.47,10.95v-19.18l21.47-10.82V474.75z
		 M203.24,575l-21.47,10.95v-21.92l21.47-10.95V575z M227.52,636.03l-21.47,10.7v-19.89l21.47-10.95V636.03z M178.96,512.19
		l-21.47,10.95v-21.92l21.47-10.95V512.19z M178.96,487.13l-21.47,10.95v-19.32l21.47-10.82V487.13z M203.24,625.12l-21.47,10.95
		v-21.92l21.47-10.95V625.12z M203.24,648.12l-21.47,10.7v-19.61l21.47-10.95V648.12z M227.52,612.74l-21.47,10.95v-21.92
		l21.47-10.95V612.74z M424.3,563.88l-21.94-11.19v22.45l21.94,11.19V563.88z M422.89,584.03l-19.13-9.75v-19.29l19.13,9.75V584.03z
		 M448.58,551.2l-21.94-11.19v22.45l21.94,11.19V551.2z M447.18,571.35l-19.13-9.75v-19.3l19.13,9.75V571.35z M448.58,526.13
		l-21.94-11.19v22.45l21.94,11.18V526.13z M447.18,546.29l-19.13-9.75v-19.3l19.13,9.75V546.29z M448.58,576.26l-21.94-11.19v22.45
		l21.94,11.18V576.26z M447.18,596.41l-19.13-9.75v-19.29l19.13,9.75V596.41z M475.2,662.4l21.06,10.73v-22.45l-21.06-10.73V662.4z
		 M476.61,642.24l18.25,9.3v19.29l-18.25-9.3V642.24z M448.58,501.07l-21.94-11.19v22.45l21.94,11.18V501.07z M447.18,521.23
		l-19.13-9.75v-19.29l19.13,9.75V521.23z M475.2,637.34l21.06,10.73v-22.45l-21.06-10.73V637.34z M476.61,617.18l18.25,9.3v19.3
		l-18.25-9.3V617.18z M424.3,466.37l-21.94-11.06v19.58l21.94,11.19V466.37z M422.89,483.79l-19.13-9.75v-16.44l19.13,9.64V483.79z
		 M448.58,651.44l-21.94-11.18v20.11l21.94,10.93V651.44z M447.18,669.03l-19.13-9.53v-16.94l19.13,9.75V669.03z M276.08,591.13
		v20.71l-21.47,10.7v-20.46L276.08,591.13z M448.58,601.32l-21.94-11.19v22.45l21.94,11.18V601.32z M447.18,621.47l-19.13-9.75
		v-19.3l19.13,9.75V621.47z M448.58,478.61l-21.94-11.06v19.72l21.94,11.19V478.61z M447.18,496.16l-19.13-9.75v-16.58l19.13,9.64
		V496.16z M475.2,684.55l21.06,10.49v-19.29l-21.06-10.73V684.55z M476.61,667.3l18.25,9.3v16.17l-18.25-9.09V667.3z M375.97,629.62
		h-0.01l-0.22-0.1v-15.21l-21.94-11.18v17.89l-2.34,1.17v-20.25l-9.27-4.73l1.33-1.94l7.94,4.05v-15.63l2.34-3.41v20.24l21.94,11.19
		v-22.45l-20.82-10.61l1.33-1.94l19.49,9.94v-22.45l-8.09-4.12l1.33-1.94l6.76,3.45v-13.31l1.25-1.82l0.1-33.06l-23.02-11.32
		l-2.6,1.33v-1.71l-21.94-11.19v22.45l1.6,0.82l-3.94,2.01v-1.4L304.86,503v22.45l1.66,0.85l-5.79,2.95v-0.8l-21.84,11.13v0.8
		l-2.81,1.43V541l-21.47,10.95v0.8l-2.81,1.43v-0.8l-21.47,10.95v21.92l9.74-4.96v3.14l-9.74,4.96v21.92l21.47-10.95v-7.99
		l2.81,1.39v5.17l5.14-2.62l1.65,0.82l43.82-21.38l0.34,0.17l-4.83,6.98v-4.34l-21.84,11.13v20.74l4.21-2.09l-4.59,6.63
		l-167.3,83.14l194.05,95.7l190.17-95.08l-119.48-59.8L375.97,629.62z M355.2,580.35l19.13,9.75v19.29l-19.13-9.75V580.35z
		 M355.2,605.42l19.13,9.75v13.72l-19.13-8.56V605.42z M355.19,624.48l15.43,6.9l-78.8,39.29l15.06-21.96L355.19,624.48z
		 M345.4,625.21L345.4,625.21L345.4,625.21L345.4,625.21z M344.84,625.49l-33.56,16.79l17.43-25.42l-0.22,0.45L344.84,625.49z
		 M346.96,624.43l-17.45-8.74l1.89-2.76l19.31,9.62L346.96,624.43z M350.05,602.79v17.86l-17.84-8.89l9.18-13.39L350.05,602.79z
		 M350.05,597.02l-5.74-2.92l5.74-8.37V597.02z M374.33,565.05v19.3l-17.29-8.81l9.8-14.3L374.33,565.05z M374.33,559.28l-4.56-2.32
		l4.56-6.64V559.28z M330.91,512.08v-19.29l19.13,9.75v1.56l-17.39,8.86L330.91,512.08z M306.27,524.58v-19.29l19.5,9.94v1.26
		l-17.7,9.02L306.27,524.58z M259.52,591.91l-15.85-8.16l0.06-20.43l15.85,8.11L259.52,591.91z M246.03,560.25l108.04-53.96
		l16.81,8.26l-109.15,53.73L246.03,560.25z M263.34,591.98l0.06-20.3l109.87-54.08v27.68l-92.81,135.25l92.7-46.18v22.42
		l-110.19,54.26v-29.1l92.78-135.03L263.34,591.98z M312.89,572.02l31.6-15.42l-84.7,123.83l-17.95-5.89L312.89,572.02z
		 M259.12,711.18l-18.46-7.86l0.07-25.17l17.94,5.89L259.12,711.18z M376.11,658.94l0.28-0.14l0.05-17.5l114.73,57.43l-185.92,92.95
		L115.5,698.1l161.69-80.35l-39.51,57.02l-0.09,0.13l-0.25,30.58l23.77,10.12L376.11,658.94z M448.58,626.38l-21.94-11.19v22.45
		l21.94,11.19V626.38z M447.18,646.54l-19.13-9.75v-19.3l19.13,9.75V646.54z M472.86,538.51l-21.94-11.19v22.45l21.94,11.19V538.51z
		 M471.46,558.67l-19.13-9.75v-19.3l19.13,9.75V558.67z M475.2,612.27l21.06,10.73v-22.45l-21.06-10.73V612.27z M476.61,592.12
		l18.25,9.3v19.29l-18.25-9.3V592.12z M475.2,562.15l21.06,10.73v-22.45L475.2,539.7V562.15z M476.61,542l18.25,9.3v19.3l-18.25-9.3
		V542z M475.2,537.09l21.06,10.73v-22.45l-21.06-10.73V537.09z M476.61,516.93l18.25,9.3v19.29l-18.25-9.3V516.93z M472.86,490.84
		l-21.94-11.06v19.86l21.94,11.19V490.84z M471.46,508.54l-19.13-9.75v-16.72l19.13,9.64V508.54z M472.86,513.45l-21.94-11.19v22.45
		l21.94,11.19V513.45z M471.46,533.6l-19.13-9.75v-19.29l19.13,9.75V533.6z M472.86,563.57l-21.94-11.19v22.45l21.94,11.19V563.57z
		 M471.46,583.73l-19.13-9.75v-19.29l19.13,9.75V583.73z M472.86,663.82l-21.94-11.19v19.82l21.94,10.93V663.82z M471.46,681.12
		l-19.13-9.53v-16.66l19.13,9.75V681.12z M472.86,638.76l-21.94-11.19v22.45l21.94,11.19V638.76z M471.46,658.91l-19.13-9.75v-19.29
		l19.13,9.75V658.91z M475.2,587.21l21.06,10.73V575.5l-21.06-10.73V587.21z M476.61,567.06l18.25,9.3v19.29l-18.25-9.3V567.06z
		 M472.86,613.7l-21.94-11.19v22.45l21.94,11.19V613.7z M471.46,633.85l-19.13-9.75v-19.3l19.13,9.75V633.85z M472.86,588.64
		l-21.94-11.19v22.45l21.94,11.19V588.64z M471.46,608.79l-19.13-9.75v-19.29l19.13,9.75V608.79z M400.02,551.5l-21.94-11.19v22.45
		l21.94,11.19V551.5z M398.61,571.66l-19.13-9.75v-19.3l19.13,9.75V571.66z M351.45,429.66l-21.94-11.06v19.15l21.94,11.19V429.66z
		 M350.05,446.65l-19.13-9.75v-16.01l19.13,9.64V446.65z M400.02,601.63l-21.94-11.19v22.45l21.94,11.19V601.63z M398.61,621.78
		l-19.13-9.75v-19.29l19.13,9.75V621.78z M375.73,463.94l-21.94-11.18v22.45l21.94,11.19V463.94z M374.33,484.09l-19.13-9.75v-19.29
		l19.13,9.75V484.09z M375.73,489l-21.94-11.18v22.45l21.94,11.19V489z M374.33,509.16l-19.13-9.75v-19.3l19.13,9.75V509.16z
		 M424.3,488.69l-21.94-11.19v22.45l21.94,11.19V488.69z M422.89,508.85l-19.13-9.75V479.8l19.13,9.75V508.85z M400.02,626.69
		l-21.94-11.19v20.67l21.94,10.93V626.69z M398.61,644.84l-19.13-9.53v-17.51l19.13,9.75V644.84z M130.39,684.41l-20.59,10.26
		v-18.77l20.59-10.5V684.41z M130.39,612.13l-20.59,10.5v-21.92l20.59-10.5V612.13z M130.39,662.25l-20.59,10.5v-21.92l20.59-10.5
		V662.25z M351.45,476.62l-21.94-11.19v22.45l21.94,11.19V476.62z M350.05,496.78l-19.13-9.75v-19.3l19.13,9.75V496.78z
		 M327.17,417.43l-22.31-11.24v19.01l22.31,11.37V417.43z M325.77,434.28l-19.5-9.94v-15.87l19.5,9.83V434.28z M130.39,637.19
		l-20.59,10.5v-21.92l20.59-10.5V637.19z M351.45,451.56l-21.94-11.19v22.45l21.94,11.19V451.56z M350.05,471.72l-19.13-9.75v-19.3
		l19.13,9.75V471.72z M375.73,441.9l-21.94-11.06v19.3l21.94,11.19V441.9z M374.33,459.03l-19.13-9.75v-16.16l19.13,9.64V459.03z
		 M130.39,511.88l-20.59,10.5v-19.6l20.59-10.38V511.88z M424.3,639.07l-21.94-11.19v20.39l21.94,10.93V639.07z M422.89,656.93
		l-19.13-9.53v-17.23l19.13,9.75V656.93z M475.2,492.02v20l21.06,10.73v-20.13L475.2,492.02z M494.86,520.47l-18.25-9.3V494.3
		l18.25,9.2V520.47z M424.3,614l-21.94-11.19v22.45l21.94,11.19V614z M422.89,634.16l-19.13-9.75v-19.29l19.13,9.75V634.16z
		 M424.3,538.82l-21.94-11.19v22.45l21.94,11.19V538.82z M422.89,558.97l-19.13-9.75v-19.29l19.13,9.75V558.97z M424.3,513.76
		l-21.94-11.19v22.45l21.94,11.19V513.76z M422.89,533.91l-19.13-9.75v-19.3l19.13,9.75V533.91z M400.02,454.13l-21.94-11.06v19.44
		l21.94,11.19V454.13z M398.61,471.41l-19.13-9.75v-16.3l19.13,9.64V471.41z M130.39,587.07l-20.59,10.5v-21.92l20.59-10.5V587.07z
		 M400.02,526.44l-21.94-11.19v22.45l21.94,11.19V526.44z M398.61,546.59l-19.13-9.75v-19.29l19.13,9.75V546.59z M400.02,501.38
		l-21.94-11.19v22.45l21.94,11.18V501.38z M398.61,521.53l-19.13-9.75v-19.3l19.13,9.75V521.53z M400.02,576.56l-21.94-11.19v22.45
		l21.94,11.19V576.56z M398.61,596.72l-19.13-9.75v-19.3l19.13,9.75V596.72z M400.02,476.32l-21.94-11.19v22.45l21.94,11.19V476.32z
		 M398.61,496.47l-19.13-9.75v-19.3l19.13,9.75V496.47z"/>
	<g>
		<g>
			<path class="st14" d="M711.28,701.77H550.28v-38.81l101.15-127.95h-98.54v-40.44h158.12v37.03l-0.49,0.62L608.51,661.47h102.77
				V701.77z M554.83,697.22h151.9v-31.19H599.11l107.34-136.01v-30.89H557.44v31.33h103.39l-106,134.09V697.22z"/>
		</g>
		<g>
			<path class="st14" d="M790.85,607.38c7.41-0.93,12.71-2.1,15.9-3.49c5.72-2.42,8.59-6.19,8.59-11.32c0-6.24-2.2-10.55-6.59-12.92
				c-4.39-2.38-10.83-3.56-19.33-3.56c-9.53,0-16.29,2.33-20.25,6.99c-2.83,3.45-4.72,8.1-5.66,13.97h-38.42
				c0.84-13.32,4.58-24.26,11.22-32.83c10.57-13.41,28.72-20.12,54.44-20.12c16.74,0,31.61,3.31,44.62,9.92
				c13,6.61,19.5,19.09,19.5,37.44v69.85c0,4.84,0.09,10.71,0.28,17.6c0.28,5.22,1.07,8.76,2.38,10.62c1.3,1.86,3.26,3.4,5.87,4.61
				V700h-43.31c-1.21-3.07-2.05-5.96-2.52-8.66c-0.47-2.7-0.84-5.77-1.12-9.22c-5.53,5.96-11.9,11.04-19.11,15.23
				c-8.62,4.94-18.36,7.4-29.23,7.4c-13.87,0-25.32-3.94-34.36-11.8c-9.04-7.87-13.56-19.02-13.56-33.46
				c0-18.72,7.27-32.27,21.81-40.65c7.98-4.56,19.71-7.82,35.19-9.78L790.85,607.38z M815.2,625.96c-2.55,1.58-5.12,2.86-7.72,3.84
				c-2.6,0.98-6.16,1.89-10.69,2.72l-9.06,1.68c-8.5,1.49-14.6,3.31-18.3,5.45c-6.27,3.63-9.41,9.27-9.41,16.9
				c0,6.8,1.91,11.71,5.75,14.74c3.83,3.03,8.49,4.54,13.97,4.54c8.7,0,16.71-2.51,24.04-7.54c7.33-5.03,11.14-14.2,11.42-27.52
				V625.96z"/>
		</g>
		<g>
			<path class="st14" d="M974.25,544.16c0.51,0.05,1.65,0.12,3.42,0.21v40.79c-2.52-0.28-4.75-0.47-6.71-0.56
				c-1.96-0.09-3.54-0.14-4.75-0.14c-16.02,0-26.78,5.22-32.27,15.65c-3.07,5.87-4.61,14.9-4.61,27.1V700h-40.09V547.73h38v26.54
				c6.15-10.15,11.5-17.09,16.07-20.82c7.45-6.24,17.14-9.36,29.06-9.36C973.11,544.09,973.74,544.12,974.25,544.16z"/>
		</g>
		<g>
			<path class="st14" d="M1084.08,544.16c0.51,0.05,1.65,0.12,3.42,0.21v40.79c-2.52-0.28-4.75-0.47-6.71-0.56
				c-1.96-0.09-3.54-0.14-4.75-0.14c-16.02,0-26.78,5.22-32.27,15.65c-3.07,5.87-4.61,14.9-4.61,27.1V700h-40.09V547.73h38v26.54
				c6.15-10.15,11.5-17.09,16.07-20.82c7.45-6.24,17.14-9.36,29.06-9.36C1082.94,544.09,1083.56,544.12,1084.08,544.16z"/>
		</g>
	</g>
</g>
</svg>
